<svg xmlns="http://www.w3.org/2000/svg" viewBox="0 0 60 60"><defs><style>.cls-1{fill:#e9edf5;}.cls-2{fill:#bec3d2;}.cls-3{fill:#65b1fc;}.cls-4{fill:#87c7ff;}.cls-5{fill:#a3d4ff;}.cls-6{fill:#ffc247;}.cls-7{fill:#ffe45c;}.cls-8{fill:#ffda45;}.cls-9{opacity:0.54;}.cls-10{fill:#fff;}.cls-11{fill:#2b1505;}</style></defs><title>3-Email Contact</title><g id="_3-Email_Contact" data-name="3-Email Contact"><polygon class="cls-1" points="43 54 44 57 43 58 17 58 16 57 17 54 20 54 40 54 43 54"/><path class="cls-2" d="M40,54H20c3.5-3.5,3-6,3-6H37S36.5,50.5,40,54Z"/><circle class="cls-2" cx="30" cy="42" r="2"/><path class="cls-1" d="M59,36v8a4,4,0,0,1-4,4H5a4,4,0,0,1-4-4V36ZM32,42a2,2,0,1,0-2,2A2.006,2.006,0,0,0,32,42Z"/><path class="cls-3" d="M59,6V36H1V6A4,4,0,0,1,5,2H55A4,4,0,0,1,59,6Z"/><path class="cls-4" d="M18.039,2H5A4,4,0,0,0,1,6V17.686A31.1,31.1,0,0,1,18.039,2Z"/><path class="cls-5" d="M2.092,36A37.508,37.508,0,0,1,30.911,2H18.039A31.1,31.1,0,0,0,1,17.686V36Z"/><path class="cls-6" d="M37,28a2.993,2.993,0,0,1-.88,2.12L36,30,25,19l-.35-.51L37,10Z"/><path class="cls-7" d="M37,10,24.65,18.49,21,21l-3.65-2.51L5,10A3,3,0,0,1,8,7H34A3,3,0,0,1,37,10Z"/><path class="cls-6" d="M17,19,6,30l-.12.12A2.993,2.993,0,0,1,5,28V10l12.35,8.49Z"/><path class="cls-7" d="M25,19,36,30l.12.12A2.993,2.993,0,0,1,34,31H8a2.993,2.993,0,0,1-2.12-.88L6,30,17,19l.35-.51L21,21l3.65-2.51Z"/><path class="cls-8" d="M36,30l-2.141-2.141A2.943,2.943,0,0,1,33,28H8L6,30l-.12.12A2.993,2.993,0,0,0,8,31H34a2.993,2.993,0,0,0,2.12-.88Z"/><polygon class="cls-6" points="21 24 24.65 21.49 26.333 20.333 25 19 24.65 18.49 21 21 17.35 18.49 17 19 15.667 20.333 17.35 21.49 21 24"/><g class="cls-9"><path class="cls-10" d="M11.594,7H8a3,3,0,0,0-3,3l2.021,1.389A4.577,4.577,0,0,1,11.594,7Z"/></g><path class="cls-10" d="M55,19a9.988,9.988,0,0,1-4.82,8.55L50,27V26a5,5,0,0,0-5-5,4,4,0,1,0-4-4,4,4,0,0,0,4,4,5,5,0,0,0-5,5v1l-.98.01A10,10,0,1,1,55,19Z"/><circle class="cls-1" cx="45" cy="17" r="4"/><path class="cls-1" d="M50,27l.18.55a9.979,9.979,0,0,1-11.16-.54L40,27V26a5,5,0,0,1,10,0Z"/><path class="cls-11" d="M55,1H5A5.006,5.006,0,0,0,0,6V44a5.006,5.006,0,0,0,5,5H21.948a8.437,8.437,0,0,1-2.37,4H17a1,1,0,0,0-.949.684l-1,3a1,1,0,0,0,.242,1.023l1,1A1,1,0,0,0,17,59H43a1,1,0,0,0,.707-.293l1-1a1,1,0,0,0,.242-1.023l-1-3A1,1,0,0,0,43,53H40.422a8.478,8.478,0,0,1-2.373-4H55a5.006,5.006,0,0,0,5-5V6A5.006,5.006,0,0,0,55,1ZM5,3H55a3,3,0,0,1,3,3V35H2V6A3,3,0,0,1,5,3ZM42.856,56.73l-.27.27H17.414l-.27-.27L17.721,55H42.279ZM37.813,53H22.187a8.652,8.652,0,0,0,1.795-4H36.018A8.652,8.652,0,0,0,37.813,53ZM55,47H5a3,3,0,0,1-3-3V37H58v7A3,3,0,0,1,55,47Z"/><path class="cls-11" d="M30,39a3,3,0,1,0,3,3A3,3,0,0,0,30,39Zm0,4a1,1,0,1,1,1-1A1,1,0,0,1,30,43Z"/><path class="cls-11" d="M8,32H34a4,4,0,0,0,4-4v-.521a11,11,0,1,0,0-16.958V10a4,4,0,0,0-4-4H8A4,4,0,0,0,4.02,9.8h0c0,.067-.02.131-.02.2V28A4,4,0,0,0,8,32Zm7.887-13.3L6.075,28.511A1.96,1.96,0,0,1,6,28V11.9ZM8,30a1.96,1.96,0,0,1-.511-.075L17.563,19.851l2.871,1.973a1,1,0,0,0,1.132,0l2.871-1.973L34.511,29.925A1.96,1.96,0,0,1,34,30ZM36,12.7a10.938,10.938,0,0,0,0,12.61V28a1.96,1.96,0,0,1-.075.511L26.113,18.7,36,11.9Zm4.991,14.351c0-.016.009-.03.009-.046V26a4,4,0,0,1,8,0v1c0,.016.008.03.009.046a8.9,8.9,0,0,1-8.018,0ZM42,17a3,3,0,1,1,3,3A3,3,0,0,1,42,17Zm3-7a8.987,8.987,0,0,1,5.985,15.7,5.992,5.992,0,0,0-2.872-4.822,5,5,0,1,0-6.226,0A5.992,5.992,0,0,0,39.015,25.7,8.987,8.987,0,0,1,45,10ZM8,8H34a2,2,0,0,1,1.935,1.519L21,19.787,6.065,9.519A2,2,0,0,1,8,8Z"/></g></svg>