<?xml version="1.0" encoding="utf-8"?>
<!-- Generator: Adobe Illustrator 16.0.0, SVG Export Plug-In . SVG Version: 6.00 Build 0)  -->
<!DOCTYPE svg PUBLIC "-//W3C//DTD SVG 1.1//EN" "http://www.w3.org/Graphics/SVG/1.1/DTD/svg11.dtd">
<svg version="1.1" id="icons" xmlns="http://www.w3.org/2000/svg" xmlns:xlink="http://www.w3.org/1999/xlink" x="0px" y="0px"
	 width="64px" height="64px" viewBox="0 0 64 64" enable-background="new 0 0 64 64" xml:space="preserve">
<g>
	<path fill="#E6E9ED" d="M47.029,43.5H1.079h-0.05v-35c0-1.1,0.9-2,2-2h49.99c1.1,0,2,0.9,2,2v18.98v0.02h-3.99v-17h-46v17h15.99h6
		h18h4.01c-1.1,0-2,0.9-2,2v2v4v4.01v1.99V43.5z"/>
	<path fill="#5D9CEC" d="M50.998,9.498H5c-0.553,0-1,0.447-1,1v16.998c0,0.553,0.447,1,1,1h45.998c0.553,0,1-0.447,1-1V10.498
		C51.998,9.945,51.551,9.498,50.998,9.498z"/>
	<path fill="#545C66" d="M18.999,54.5h18.002h2c1.1,0,2,0.89,2,2v1H14.999v-1c0-1.11,0.89-2,2-2H18.999z"/>
	<polygon fill="#434A54" points="35.001,47.5 37.001,54.5 18.999,54.5 20.999,47.5 	"/>
	<path fill="#545C66" d="M1.05,43.5H47v4h-0.01H34H22H3c-1.1,0-2-0.9-2-2v-2H1.05z"/>
	<path fill="#FFCE54" d="M15,14c1.388,0,2.5,1.125,2.5,2.5c0,1.388-1.112,2.5-2.5,2.5c-1.375,0-2.5-1.112-2.5-2.5
		C12.5,15.125,13.625,14,15,14z"/>
	<g>
		<path fill="#434A54" d="M28.026,46.498c-0.553,0-1.005-0.447-1.005-1s0.442-1,0.994-1h0.011c0.552,0,1,0.447,1,1
			S28.578,46.498,28.026,46.498z"/>
	</g>
	<g>
		<path fill="#545C66" d="M47.002,44.498H1.047c-0.553,0-1-0.447-1-1s0.447-1,1-1h45.955c0.553,0,1,0.447,1,1
			S47.555,44.498,47.002,44.498z"/>
	</g>
	<g>
		<path fill="#545C66" d="M46.986,48.498H3c-1.654,0-3-1.346-3-3V8.502c0-1.654,1.346-3,3-3h49.992c1.654,0,3,1.346,3,3V27.48
			c0,0.553-0.447,1-1,1s-1-0.447-1-1V8.502c0-0.552-0.448-1-1-1H3c-0.552,0-1,0.448-1,1v36.996c0,0.552,0.448,1,1,1h43.986
			c0.553,0,1,0.447,1,1S47.539,48.498,46.986,48.498z"/>
	</g>
	<g>
		<path fill="#545C66" d="M39.996,58.496H15.998c-0.553,0-1-0.447-1-1s0.447-1,1-1h23.998c0.553,0,1,0.447,1,1
			S40.549,58.496,39.996,58.496z"/>
	</g>
	<g>
		<path fill="#CCD1D9" d="M47,32.498H5c-0.553,0-1-0.447-1-1s0.447-1,1-1h42c0.553,0,1,0.447,1,1S47.553,32.498,47,32.498z"/>
	</g>
	<g>
		<path fill="#CCD1D9" d="M47,36.502H5c-0.553,0-1-0.447-1-1s0.447-1,1-1h42c0.553,0,1,0.447,1,1S47.553,36.502,47,36.502z"/>
	</g>
	<g>
		<path fill="#CCD1D9" d="M47,40.506H5c-0.553,0-1-0.447-1-1s0.447-1,1-1h42c0.553,0,1,0.447,1,1S47.553,40.506,47,40.506z"/>
	</g>
	<path fill="#656D78" d="M36.544,16.685c-0.061-0.041-0.121-0.074-0.188-0.1c-0.057-0.022-0.111-0.04-0.17-0.052
		c-0.065-0.013-0.128-0.019-0.194-0.019c-0.063,0.001-0.124,0.006-0.187,0.018c-0.061,0.012-0.117,0.029-0.176,0.053
		c-0.066,0.026-0.126,0.059-0.186,0.099c-0.026,0.019-0.057,0.023-0.082,0.044s-0.036,0.05-0.06,0.072
		c-0.025,0.025-0.06,0.039-0.083,0.068l-9.515,11.628h20.579l-9.516-11.628c-0.023-0.029-0.058-0.043-0.084-0.068
		c-0.022-0.022-0.033-0.052-0.059-0.072C36.601,16.707,36.57,16.702,36.544,16.685z"/>
	<path fill="#545C66" d="M28.269,19.87c-0.022-0.027-0.055-0.041-0.079-0.065c-0.025-0.024-0.038-0.058-0.066-0.08
		c-0.026-0.021-0.06-0.027-0.087-0.046c-0.057-0.037-0.113-0.066-0.175-0.092c-0.061-0.023-0.118-0.043-0.181-0.055
		c-0.063-0.013-0.124-0.017-0.188-0.017s-0.125,0.004-0.188,0.017c-0.063,0.012-0.12,0.03-0.181,0.055
		c-0.063,0.025-0.119,0.055-0.176,0.092c-0.028,0.019-0.061,0.024-0.087,0.046c-0.028,0.022-0.041,0.055-0.066,0.08
		c-0.024,0.024-0.057,0.038-0.079,0.065l-7.009,8.626h5.997l4.804-5.87L28.269,19.87z"/>
	<g>
		<path fill="#656D78" d="M63,29.5v2H48.001v-2c0-1.1,0.9-2,2-2h2h2.989H61C62.1,27.5,63,28.4,63,29.5z"/>
		<path fill="#656D78" d="M63,53.5v2c0,1.1-0.9,2-2,2H50.001c-1.1,0-2-0.9-2-2v-2H63z"/>
		<polygon fill="#E6E9ED" points="63,41.5 63,53.5 48.001,53.5 47,47.5 47,43.5 47,41.5 51,41.5 54,41.5 62,41.5 		"/>
		<g>
			<path fill="#656D78" d="M61,58.498H50.003c-1.654,0-3-1.346-3-3V29.496c0-1.654,1.346-3,3-3H61c1.654,0,3,1.346,3,3v26.002
				C64,57.152,62.654,58.498,61,58.498z M50.003,28.496c-0.552,0-1,0.448-2.001,1v26.002c1.001,0.552,1.449,1,2.001,1H61
				c0.552,0,1-0.448,1.999-1V29.496c-0.999-0.552-1.447-1-1.999-1H50.003z"/>
		</g>
		<g>
			<path fill="#AAB2BD" d="M55.504,56.998c-0.553,0-1.005-0.447-1.005-1s0.442-1,0.994-1h0.011c0.552,0,1,0.447,1,1
				S56.056,56.998,55.504,56.998z"/>
		</g>
		<g>
			<g>
				<path fill="#CCD1D9" d="M59.998,48.498h-8.999c-0.553,0-1-0.447-1-1s0.447-1,1-1h8.999c0.553,0,1,0.447,1,1
					S60.551,48.498,59.998,48.498z"/>
			</g>
			<g>
				<path fill="#CCD1D9" d="M59.998,45.498h-8.999c-0.553,0-1-0.447-1-1s0.447-1,1-1h8.999c0.553,0,1,0.447,1,1
					S60.551,45.498,59.998,45.498z"/>
			</g>
			<g>
				<path fill="#CCD1D9" d="M59.998,51.498h-8.999c-0.553,0-1-0.447-1-1s0.447-1,1-1h8.999c0.553,0,1,0.447,1,1
					S60.551,51.498,59.998,51.498z"/>
			</g>
		</g>
		<g>
			<rect x="48.001" y="30.499" fill="#5D9CEC" width="14.999" height="11.001"/>
			<path fill="#656D78" d="M63,41.196l-4.167-6.253l-0.003-0.004c-0.053-0.079-0.125-0.135-0.194-0.194
				c-0.03-0.025-0.049-0.061-0.083-0.083h-0.001c-0.11-0.074-0.234-0.123-0.363-0.148c-0.063-0.013-0.127-0.001-0.19-0.001
				c-0.064,0-0.128-0.012-0.191,0.001c-0.129,0.025-0.252,0.074-0.363,0.148c-0.021,0.015-0.033,0.037-0.053,0.054
				c-0.083,0.063-0.164,0.132-0.225,0.224l-0.003,0.004L52.794,41.5h2.403h5.602H63V41.196z"/>
			<path fill="#545C66" d="M54.836,36.447c-0.001-0.001-0.001-0.002-0.002-0.003l-0.002-0.003c-0.038-0.057-0.093-0.092-0.139-0.139
				c-0.047-0.046-0.082-0.101-0.139-0.139c0,0-0.001,0-0.001-0.001c-0.111-0.073-0.234-0.123-0.362-0.147
				c-0.064-0.013-0.128-0.001-0.191-0.001c-0.064,0-0.128-0.012-0.191,0.001c-0.253,0.049-0.487,0.194-0.641,0.426l-0.002,0.003
				c-0.001,0.001-0.001,0.002-0.002,0.003L49.796,41.5h2.403h0.595l2.705-4.059L54.836,36.447z"/>
			<g>
				<path fill="#FFCE54" d="M51.031,34.493c-0.553,0-1.005-0.447-1.005-1s0.442-1,0.994-1h0.011c0.552,0,1,0.447,1,1
					S51.583,34.493,51.031,34.493z"/>
			</g>
		</g>
	</g>
</g>
</svg>
