<svg xmlns="http://www.w3.org/2000/svg" viewBox="0 0 64 64"><defs><style>.cls-4{fill:#dfe1ea}.cls-7{fill:#7e8596}.cls-9{fill:#fff}</style></defs><g id="_57-Error_Site" data-name="57-Error Site"><path style="fill:#979faf" d="M19 59h26v3H19z"/><path style="fill:#adb2c7" d="m40 50 5 9H19l5-9h16z"/><path d="M63 4v38H1V4a2.006 2.006 0 0 1 2-2h58a2.006 2.006 0 0 1 2 2z" style="fill:#8dd5f6"/><path class="cls-4" d="M63 42v6a2.006 2.006 0 0 1-2 2H3a2.006 2.006 0 0 1-2-2v-6z"/><path d="M61 2H3a2.006 2.006 0 0 0-2 2v14.844A26.743 26.743 0 0 0 9.2 20c7.6 0 7.6-2 15.2-2s7.6 2 15.2 2 7.6-2 15.2-2a26.787 26.787 0 0 1 8.2 1.157V4a2.006 2.006 0 0 0-2-2z" style="fill:#aedff7"/><path d="M61 2H3a2.006 2.006 0 0 0-2 2v7.844A26.743 26.743 0 0 0 9.2 13c7.6 0 7.6-2 15.2-2s7.6 2 15.2 2 7.6-2 15.2-2a26.787 26.787 0 0 1 8.2 1.157V4a2.006 2.006 0 0 0-2-2z" style="fill:#f6fafd"/><path class="cls-7" d="m24 50-1.832 3.3a25.289 25.289 0 0 0 6.432.7c6.6 0 7.475-1.507 12.57-1.9L40 50z"/><rect x="7" y="9" width="22" height="23" rx="1.576" ry="1.576" style="fill:#0096cf"/><path class="cls-9" d="M6 15h20v14H6z"/><path class="cls-7" d="M6 7h20v8H6z"/><path class="cls-4" d="M9 18h14v8H9z"/><path class="cls-9" d="M9 10h2v2H9zM13 10h2v2h-2z"/><path d="M61 1H3a3 3 0 0 0-3 3v44a3 3 0 0 0 3 3h19.3l-4.175 7.515A.991.991 0 0 0 18 59v2h-2v2h32v-2h-2v-2a.991.991 0 0 0-.126-.485L41.7 51H61a3 3 0 0 0 3-3V4a3 3 0 0 0-3-3zM3 3h58a1 1 0 0 1 1 1v37H2V4a1 1 0 0 1 1-1zm17 58v-1h24v1zm23.3-3H20.7l3.889-7h14.823zM61 49H3a1 1 0 0 1-1-1v-5h60v5a1 1 0 0 1-1 1z"/><path d="M6 30h13v-2H7V16h18v1h2V7a1 1 0 0 0-1-1H6a1 1 0 0 0-1 1v22a1 1 0 0 0 1 1zM25 8v6H7V8z"/><path d="m25.06 19.658-4 11A1.026 1.026 0 0 0 21 31a2.916 2.916 0 0 0 3 3h4v4h2v-4h3v-2h-3V20a1 1 0 0 0-1-1h-3a1 1 0 0 0-.94.658zM28 21v11h-4a.888.888 0 0 1-.99-.853L26.7 21zM50 34h4v4h2v-4h3v-2h-3V20a1 1 0 0 0-1-1h-3a1 1 0 0 0-.94.658l-4 11A1.026 1.026 0 0 0 47 31a2.916 2.916 0 0 0 3 3zm2.7-13H54v11h-4a.888.888 0 0 1-.99-.853zM35 22v13a3 3 0 0 0 3 3h4a3 3 0 0 0 3-3V22a3 3 0 0 0-3-3h-4a3 3 0 0 0-3 3zm8 0v13a1 1 0 0 1-1 1h-4a1 1 0 0 1-1-1V22a1 1 0 0 1 1-1h4a1 1 0 0 1 1 1zM13.293 18.293l-3 3a1 1 0 0 0 0 1.414l3 3 1.414-1.414L12.414 22l2.293-2.293zM18.707 25.707l3-3a1 1 0 0 0 0-1.414l-3-3-1.414 1.414L19.586 22l-2.293 2.293zM30 15h11v2H30zM30 11h6v2h-6z"/></g></svg>